<svg width="94" height="92" viewBox="0 0 94 92" fill="none" xmlns="http://www.w3.org/2000/svg">
<path d="M47 92C72.9574 92 94 71.4051 94 46C94 20.5949 72.9574 0 47 0C21.0426 0 0 20.5949 0 46C0 71.4051 21.0426 92 47 92Z" fill="#EBF4F9"/>
<path fill-rule="evenodd" clip-rule="evenodd" d="M81.3751 46.1082C81.3751 44.9947 82.0884 43.7634 82.8425 42.4596C83.7695 40.8599 84.7269 39.2056 84.3653 37.6282C84.0023 36.05 82.4164 34.9673 80.8821 33.9197C79.6319 33.0659 78.4507 32.2598 77.9639 31.2549C77.4511 30.197 77.5579 28.6766 77.6623 27.2068C77.7892 25.4049 77.9199 23.5423 76.9435 22.3304C75.9449 21.0919 74.0581 20.7999 72.2333 20.5174C70.7793 20.2922 69.2751 20.0593 68.3725 19.3473C67.4626 18.6288 66.8971 17.2238 66.3507 15.866C65.6714 14.1754 64.9678 12.4275 63.5366 11.743C63.0849 11.5266 62.5753 11.4217 61.9797 11.4217C60.9012 11.4217 59.7006 11.7773 58.5393 12.1207C57.1081 12.5452 55.5709 12.9595 54.5047 12.7164C53.3913 12.4631 52.279 11.4502 51.2026 10.4704C49.8371 9.22701 48.4255 7.94092 46.8068 7.94092C45.2596 7.94092 43.8757 9.19262 42.5367 10.4028C41.4273 11.4057 40.2802 12.4427 39.1044 12.707C38.0042 12.9532 36.4543 12.528 35.0018 12.0937C33.8437 11.7461 32.6478 11.3873 31.5794 11.3873C31.004 11.3873 30.5123 11.4877 30.0745 11.6951C28.6155 12.3862 27.9034 14.1481 27.2149 15.8528C26.672 17.1953 26.111 18.5844 25.218 19.2881C24.2997 20.011 22.7846 20.2458 21.3184 20.4722C19.5058 20.7527 17.6322 21.0431 16.6465 22.2641C15.6542 23.4922 15.7829 25.3685 15.9078 27.1839C16.0082 28.6425 16.1118 30.1504 15.604 31.1869C15.1013 32.2146 13.8466 33.0667 12.6328 33.8905C11.11 34.9239 9.53548 35.9928 9.1757 37.5361C8.82363 39.0459 9.75562 40.6705 10.6568 42.2408C11.393 43.523 12.1533 44.8483 12.1525 46.0222C12.1525 47.1359 11.4395 48.3669 10.6851 49.671C9.7581 51.2705 8.80052 52.925 9.16229 54.5019C9.52529 56.0803 11.1112 57.163 12.6458 58.2109C13.8958 59.0649 15.0767 59.8708 15.5632 60.8754C16.0763 61.934 15.9695 63.4545 15.8653 64.9243C15.7384 66.7262 15.6064 68.5885 16.5834 69.8007C17.5812 71.0391 19.4683 71.3312 21.2938 71.6137C22.7483 71.8386 24.252 72.072 25.1544 72.7838C26.0645 73.502 26.6298 74.9072 27.1767 76.2648C27.8565 77.9555 28.5594 79.7036 29.9908 80.3881C30.4425 80.604 30.9518 80.7097 31.5471 80.7087C32.626 80.7087 33.827 80.354 34.9876 80.0096C36.4195 79.5859 37.9592 79.1711 39.0224 79.4142C40.136 79.667 41.2482 80.6802 42.3245 81.66C43.6891 82.9033 45.1011 84.1902 46.7193 84.1902C48.2673 84.1902 49.6517 82.9385 50.9907 81.728C52.1001 80.7249 53.2472 79.6876 54.423 79.4233C55.5227 79.1787 57.0731 79.6019 58.5256 80.0369C59.6839 80.3842 60.8798 80.7431 61.9482 80.7431C62.5234 80.7431 63.0153 80.6428 63.4531 80.435C64.9129 79.7443 65.6247 77.9822 66.3129 76.2783C66.8553 74.935 67.4164 73.5462 68.3099 72.8423C69.2279 72.1194 70.744 71.8848 72.2095 71.6579C74.022 71.3771 75.8962 71.088 76.8824 69.866C77.8737 68.6379 77.7448 66.7616 77.62 64.9464C77.5199 63.4879 77.4165 61.9802 77.9237 60.9434C78.427 59.9157 79.681 59.0639 80.8945 58.2406C82.4174 57.2067 83.9921 56.1375 84.3517 54.5945C84.704 53.0849 83.7718 51.4601 82.8708 49.8898C82.1346 48.6076 81.3746 47.282 81.3751 46.1082Z" fill="#5398C3"/>
<path fill-rule="evenodd" clip-rule="evenodd" d="M76.4889 46.2015C76.4889 62.3987 63.2078 75.5281 46.8235 75.5281C30.4396 75.5281 17.1582 62.3987 17.1582 46.2015C17.1582 30.0047 30.4396 16.875 46.8235 16.875C63.2078 16.875 76.4889 30.0047 76.4889 46.2015Z" fill="#E5F0F9"/>
<path d="M79.6269 69.4844H11.2118C8.92182 69.4844 7.06543 71.0645 7.06543 73.0137V81.8372C7.06543 83.7864 8.92182 85.3665 11.2118 85.3665H79.6269C81.9169 85.3665 83.7733 83.7864 83.7733 81.8372V73.0137C83.7733 71.0645 81.9169 69.4844 79.6269 69.4844Z" fill="#F58319"/>
<path d="M16.4795 80.3271L17.8955 74.3457H18.6865L18.8672 75.3418L17.3584 81.4551H16.5088L16.4795 80.3271ZM15.752 74.3457L16.9238 80.3271L16.8262 81.4551H15.8789L14.3018 74.3457H15.752ZM20.1123 80.3027L21.2695 74.3457H22.7197L21.1475 81.4551H20.2002L20.1123 80.3027ZM19.1309 74.3457L20.5566 80.3516L20.5176 81.4551H19.668L18.1494 75.3369L18.3447 74.3457H19.1309ZM27.1914 75.5615L25.2578 81.4551H23.7002L26.3418 74.3457H27.333L27.1914 75.5615ZM28.7979 81.4551L26.8594 75.5615L26.7031 74.3457H27.7041L30.3604 81.4551H28.7979ZM28.71 78.8086V79.9561H24.9551V78.8086H28.71ZM32.0195 74.3457H34.6709C35.2145 74.3457 35.6816 74.4271 36.0723 74.5898C36.4661 74.7526 36.7689 74.9935 36.9805 75.3125C37.1921 75.6315 37.2979 76.0238 37.2979 76.4893C37.2979 76.8701 37.2327 77.1973 37.1025 77.4707C36.9756 77.7409 36.7949 77.9671 36.5605 78.1494C36.3294 78.3285 36.0576 78.4717 35.7451 78.5791L35.2812 78.8232H32.9766L32.9668 77.6807H34.6807C34.9378 77.6807 35.151 77.6351 35.3203 77.5439C35.4896 77.4528 35.6165 77.3258 35.7012 77.1631C35.7891 77.0003 35.833 76.8115 35.833 76.5967C35.833 76.3688 35.7907 76.1719 35.7061 76.0059C35.6214 75.8398 35.4928 75.7129 35.3203 75.625C35.1478 75.5371 34.9313 75.4932 34.6709 75.4932H33.4844V81.4551H32.0195V74.3457ZM35.9941 81.4551L34.373 78.2861L35.9209 78.2764L37.5615 81.3867V81.4551H35.9941ZM39.4258 74.3457H42.0771C42.6208 74.3457 43.0879 74.4271 43.4785 74.5898C43.8724 74.7526 44.1751 74.9935 44.3867 75.3125C44.5983 75.6315 44.7041 76.0238 44.7041 76.4893C44.7041 76.8701 44.639 77.1973 44.5088 77.4707C44.3818 77.7409 44.2012 77.9671 43.9668 78.1494C43.7357 78.3285 43.4639 78.4717 43.1514 78.5791L42.6875 78.8232H40.3828L40.373 77.6807H42.0869C42.3441 77.6807 42.5573 77.6351 42.7266 77.5439C42.8958 77.4528 43.0228 77.3258 43.1074 77.1631C43.1953 77.0003 43.2393 76.8115 43.2393 76.5967C43.2393 76.3688 43.1969 76.1719 43.1123 76.0059C43.0277 75.8398 42.8991 75.7129 42.7266 75.625C42.554 75.5371 42.3376 75.4932 42.0771 75.4932H40.8906V81.4551H39.4258V74.3457ZM43.4004 81.4551L41.7793 78.2861L43.3271 78.2764L44.9678 81.3867V81.4551H43.4004ZM49.7227 75.5615L47.7891 81.4551H46.2314L48.873 74.3457H49.8643L49.7227 75.5615ZM51.3291 81.4551L49.3906 75.5615L49.2344 74.3457H50.2354L52.8916 81.4551H51.3291ZM51.2412 78.8086V79.9561H47.4863V78.8086H51.2412ZM60.3369 74.3457V81.4551H58.8721L56.0156 76.6895V81.4551H54.5508V74.3457H56.0156L58.877 79.1162V74.3457H60.3369ZM65.6436 74.3457V81.4551H64.1836V74.3457H65.6436ZM67.8311 74.3457V75.4932H62.0303V74.3457H67.8311ZM70.7207 74.3457L72.2051 77.5879L73.6895 74.3457H75.2861L72.9473 78.8672V81.4551H71.4629V78.8672L69.1191 74.3457H70.7207Z" fill="white"/>
<path d="M42.3145 31.5283V45.7568H39.2578V35.0049L35.957 36.0107V33.6475L42.0117 31.5283H42.3145ZM57.6113 43.3838V45.7568H47.7871V43.7451L52.377 38.8818C52.8066 38.387 53.1484 37.9508 53.4023 37.5732C53.6628 37.1956 53.8516 36.8538 53.9688 36.5479C54.0859 36.2354 54.1445 35.9489 54.1445 35.6885C54.1445 35.2653 54.0762 34.9072 53.9395 34.6143C53.8092 34.3213 53.6172 34.0967 53.3633 33.9404C53.1094 33.7842 52.8001 33.7061 52.4355 33.7061C52.0449 33.7061 51.7096 33.807 51.4297 34.0088C51.1497 34.2106 50.9349 34.4906 50.7852 34.8486C50.6354 35.2002 50.5605 35.6006 50.5605 36.0498H47.4941C47.4941 35.1839 47.7025 34.3962 48.1191 33.6865C48.5358 32.9704 49.1185 32.4007 49.8672 31.9775C50.6159 31.5479 51.4915 31.333 52.4941 31.333C53.5228 31.333 54.3854 31.4958 55.082 31.8213C55.7786 32.1468 56.306 32.6123 56.6641 33.2178C57.0221 33.8232 57.2012 34.5524 57.2012 35.4053C57.2012 35.887 57.123 36.3525 56.9668 36.8018C56.8171 37.251 56.599 37.6969 56.3125 38.1396C56.026 38.5824 55.681 39.0348 55.2773 39.4971C54.8737 39.9528 54.418 40.4346 53.9102 40.9424L51.7617 43.3838H57.6113Z" fill="#337CAF"/>
<path d="M42.3145 31.5283H42.6145V31.2283H42.3145V31.5283ZM42.3145 45.7568V46.0568H42.6145V45.7568H42.3145ZM39.2578 45.7568H38.9578V46.0568H39.2578V45.7568ZM39.2578 35.0049H39.5578V34.5998L39.1704 34.7179L39.2578 35.0049ZM35.957 36.0107H35.657V36.4158L36.0445 36.2977L35.957 36.0107ZM35.957 33.6475L35.8579 33.3643L35.657 33.4346V33.6475H35.957ZM42.0117 31.5283V31.2283H41.9607L41.9126 31.2452L42.0117 31.5283ZM42.0145 31.5283V45.7568H42.6145V31.5283H42.0145ZM42.3145 45.4568H39.2578V46.0568H42.3145V45.4568ZM39.5578 45.7568V35.0049H38.9578V45.7568H39.5578ZM39.1704 34.7179L35.8696 35.7238L36.0445 36.2977L39.3453 35.2919L39.1704 34.7179ZM36.257 36.0107V33.6475H35.657V36.0107H36.257ZM36.0561 33.9306L42.1108 31.8115L41.9126 31.2452L35.8579 33.3643L36.0561 33.9306ZM42.0117 31.8283H42.3145V31.2283H42.0117V31.8283ZM57.6113 43.3838H57.9113V43.0838H57.6113V43.3838ZM57.6113 45.7568V46.0568H57.9113V45.7568H57.6113ZM47.7871 45.7568H47.4871V46.0568H47.7871V45.7568ZM47.7871 43.7451L47.5689 43.5392L47.4871 43.6259V43.7451H47.7871ZM52.377 38.8818L52.5953 39.0879L52.6035 39.0785L52.377 38.8818ZM53.4023 37.5732L53.1554 37.4029L53.1534 37.4058L53.4023 37.5732ZM53.9688 36.5479L54.2489 36.6551L54.2496 36.6532L53.9688 36.5479ZM53.9395 34.6143L53.6653 34.7361L53.6676 34.7411L53.9395 34.6143ZM50.7852 34.8486L51.0612 34.9662L51.0619 34.9644L50.7852 34.8486ZM50.5605 36.0498V36.3498H50.8605V36.0498H50.5605ZM47.4941 36.0498H47.1941V36.3498H47.4941V36.0498ZM48.1191 33.6865L48.3778 33.8384L48.3784 33.8374L48.1191 33.6865ZM49.8672 31.9775L50.0148 32.2387L50.0165 32.2377L49.8672 31.9775ZM56.6641 33.2178L56.4058 33.3705L56.6641 33.2178ZM56.9668 36.8018L56.6834 36.7032L56.6822 36.7069L56.9668 36.8018ZM55.2773 39.4971L55.5019 39.696L55.5033 39.6944L55.2773 39.4971ZM53.9102 40.9424L53.698 40.7303L53.6913 40.737L53.6849 40.7442L53.9102 40.9424ZM51.7617 43.3838L51.5365 43.1856L51.0981 43.6838H51.7617V43.3838ZM57.3113 43.3838V45.7568H57.9113V43.3838H57.3113ZM57.6113 45.4568H47.7871V46.0568H57.6113V45.4568ZM48.0871 45.7568V43.7451H47.4871V45.7568H48.0871ZM48.0053 43.951L52.5951 39.0877L52.1588 38.6759L47.5689 43.5392L48.0053 43.951ZM52.6035 39.0785C53.038 38.5781 53.3883 38.1318 53.6513 37.7406L53.1534 37.4058C52.9086 37.7699 52.5752 38.196 52.1504 38.6851L52.6035 39.0785ZM53.6493 37.7436C53.9183 37.3535 54.1206 36.9903 54.2489 36.6551L53.6886 36.4406C53.5826 36.7174 53.4072 37.0378 53.1554 37.4029L53.6493 37.7436ZM54.2496 36.6532C54.3761 36.316 54.4445 35.9934 54.4445 35.6885H53.8445C53.8445 35.9044 53.7958 36.1547 53.6879 36.4425L54.2496 36.6532ZM54.4445 35.6885C54.4445 35.2344 54.3714 34.8304 54.2113 34.4874L53.6676 34.7411C53.781 34.9841 53.8445 35.2962 53.8445 35.6885H54.4445ZM54.2136 34.4924C54.0607 34.1485 53.8299 33.8753 53.5205 33.6849L53.2061 34.1959C53.4045 34.318 53.5577 34.4941 53.6653 34.7361L54.2136 34.4924ZM53.5205 33.6849C53.2098 33.4937 52.8433 33.4061 52.4355 33.4061V34.0061C52.757 34.0061 53.009 34.0746 53.2061 34.1959L53.5205 33.6849ZM52.4355 33.4061C51.9906 33.4061 51.5919 33.522 51.2542 33.7654L51.6051 34.2521C51.8274 34.0919 52.0992 34.0061 52.4355 34.0061V33.4061ZM51.2542 33.7654C50.924 34.0035 50.6767 34.3303 50.5084 34.7329L51.0619 34.9644C51.193 34.6508 51.3755 34.4177 51.6051 34.2521L51.2542 33.7654ZM50.5091 34.7311C50.341 35.1257 50.2605 35.5672 50.2605 36.0498H50.8605C50.8605 35.634 50.9298 35.2746 51.0612 34.9662L50.5091 34.7311ZM50.5605 35.7498H47.4941V36.3498H50.5605V35.7498ZM47.7941 36.0498C47.7941 35.2344 47.9897 34.4996 48.3778 33.8384L47.8604 33.5346C47.4153 34.2928 47.1941 35.1334 47.1941 36.0498H47.7941ZM48.3784 33.8374C48.7673 33.1691 49.3106 32.6367 50.0148 32.2387L49.7196 31.7164C48.9264 32.1647 48.3043 32.7717 47.8598 33.5357L48.3784 33.8374ZM50.0165 32.2377C50.7129 31.8381 51.5354 31.633 52.4941 31.633V31.033C51.4477 31.033 50.5189 31.2576 49.7179 31.7173L50.0165 32.2377ZM52.4941 31.633C53.493 31.633 54.3092 31.7913 54.955 32.0931L55.209 31.5495C54.4616 31.2002 53.5526 31.033 52.4941 31.033V31.633ZM54.955 32.0931C55.6022 32.3955 56.0814 32.8219 56.4058 33.3705L56.9223 33.0651C56.5306 32.4027 55.9551 31.8981 55.209 31.5495L54.955 32.0931ZM56.4058 33.3705C56.7313 33.9208 56.9012 34.5947 56.9012 35.4053H57.5012C57.5012 34.5101 57.313 33.7257 56.9223 33.0651L56.4058 33.3705ZM56.9012 35.4053C56.9012 35.8539 56.8285 36.2861 56.6834 36.7032L57.2501 36.9003C57.4176 36.419 57.5012 35.9202 57.5012 35.4053H56.9012ZM56.6822 36.7069C56.5413 37.1296 56.3349 37.5528 56.0606 37.9767L56.5644 38.3026C56.863 37.8411 57.0928 37.3724 57.2514 36.8966L56.6822 36.7069ZM56.0606 37.9767C55.7831 38.4056 55.4471 38.8466 55.0514 39.2997L55.5033 39.6944C55.9149 39.223 56.269 38.7592 56.5644 38.3026L56.0606 37.9767ZM55.0528 39.2982C54.6538 39.7486 54.2023 40.226 53.698 40.7303L54.1223 41.1545C54.6336 40.6432 55.0936 40.157 55.5019 39.696L55.0528 39.2982ZM53.6849 40.7442L51.5365 43.1856L51.9869 43.582L54.1354 41.1406L53.6849 40.7442ZM51.7617 43.6838H57.6113V43.0838H51.7617V43.6838Z" fill="#337CAF"/>
<path d="M29.6084 52.5078H30.9268L32.6357 57.5908L34.3398 52.5078H35.6582L33.168 59.6172H32.0986L29.6084 52.5078ZM28.8467 52.5078H30.1895L30.4385 57.7764V59.6172H28.8467V52.5078ZM35.0771 52.5078H36.4248V59.6172H34.8281V57.7764L35.0771 52.5078ZM43.5342 55.9062V56.2236C43.5342 56.764 43.4593 57.249 43.3096 57.6787C43.1631 58.1084 42.9531 58.4746 42.6797 58.7773C42.4095 59.0801 42.0872 59.3128 41.7129 59.4756C41.3418 59.6351 40.93 59.7148 40.4775 59.7148C40.0251 59.7148 39.6117 59.6351 39.2373 59.4756C38.863 59.3128 38.5374 59.0801 38.2607 58.7773C37.9873 58.4746 37.7757 58.1084 37.626 57.6787C37.4762 57.249 37.4014 56.764 37.4014 56.2236V55.9062C37.4014 55.3659 37.4762 54.8809 37.626 54.4512C37.7757 54.0182 37.9857 53.6504 38.2559 53.3477C38.5293 53.0449 38.8532 52.8138 39.2275 52.6543C39.6019 52.4915 40.0153 52.4102 40.4678 52.4102C40.9202 52.4102 41.3337 52.4915 41.708 52.6543C42.0824 52.8138 42.4046 53.0449 42.6748 53.3477C42.9482 53.6504 43.1598 54.0182 43.3096 54.4512C43.4593 54.8809 43.5342 55.3659 43.5342 55.9062ZM41.9277 56.2236V55.8965C41.9277 55.5352 41.8952 55.2161 41.8301 54.9395C41.765 54.6595 41.6706 54.4251 41.5469 54.2363C41.4232 54.0475 41.2702 53.9059 41.0879 53.8115C40.9056 53.7139 40.6989 53.665 40.4678 53.665C40.2269 53.665 40.0169 53.7139 39.8379 53.8115C39.6589 53.9059 39.5075 54.0475 39.3838 54.2363C39.2633 54.4251 39.1706 54.6595 39.1055 54.9395C39.0436 55.2161 39.0127 55.5352 39.0127 55.8965V56.2236C39.0127 56.5817 39.0436 56.9007 39.1055 57.1807C39.1706 57.4574 39.265 57.6917 39.3887 57.8838C39.5124 58.0758 39.6637 58.2207 39.8428 58.3184C40.0251 58.416 40.2367 58.4648 40.4775 58.4648C40.7087 58.4648 40.9137 58.416 41.0928 58.3184C41.2751 58.2207 41.4281 58.0758 41.5518 57.8838C41.6755 57.6917 41.7682 57.4574 41.8301 57.1807C41.8952 56.9007 41.9277 56.5817 41.9277 56.2236ZM50.375 52.5078V59.6172H48.7881L46.1025 55.0225V59.6172H44.5107V52.5078H46.1025L48.793 57.1025V52.5078H50.375ZM54.7158 52.5078V59.6172H53.1289V52.5078H54.7158ZM56.8789 52.5078V53.7432H51.0098V52.5078H56.8789ZM62.4355 55.3691V56.5996H58.7539V55.3691H62.4355ZM59.2568 52.5078V59.6172H57.665V52.5078H59.2568ZM63.5342 52.5078V59.6172H61.9473V52.5078H63.5342Z" fill="#337CAF"/>
<path fill-rule="evenodd" clip-rule="evenodd" d="M25.7377 35.7349L26.7929 37.7269L29.2703 38.0115L27.4581 39.5157L27.9169 41.6907L25.7377 40.6337L23.5585 41.6907L24.0173 39.5157L22.2051 38.0115L24.6825 37.7269L25.7377 35.7349Z" fill="#F17D01"/>
<path fill-rule="evenodd" clip-rule="evenodd" d="M67.1195 35.7349L68.1747 37.7269L70.6521 38.0115L68.8399 39.5157L69.2987 41.6907L67.1195 40.6337L64.9403 41.6907L65.3991 39.5157L63.5869 38.0115L66.0643 37.7269L67.1195 35.7349Z" fill="#F17D01"/>
</svg>
