<svg width="81" height="87" viewBox="0 0 81 87" fill="none" xmlns="http://www.w3.org/2000/svg">
<path d="M41.7382 78C63.1436 78 80.496 60.5391 80.496 39C80.496 17.4609 63.1436 0 41.7382 0C20.3329 0 2.98047 17.4609 2.98047 39C2.98047 60.5391 20.3329 78 41.7382 78Z" fill="#D0E4F0"/>
<path d="M67.7189 87C67.3125 87 66.9225 86.8383 66.6342 86.5501C66.3458 86.262 66.1823 85.8708 66.1794 85.4618V80.8582C66.1794 80.6585 66.1006 80.4671 65.9603 80.3259C65.8201 80.1848 65.6298 80.1055 65.4314 80.1055C65.026 80.1055 64.6372 79.9434 64.3505 79.6549C64.0638 79.3665 63.9027 78.9752 63.9027 78.5673V73.9745C63.9028 73.8748 63.8831 73.776 63.8448 73.6839C63.8065 73.5919 63.7505 73.5084 63.6798 73.4384C63.6092 73.3683 63.5255 73.3131 63.4335 73.2759C63.3414 73.2388 63.243 73.2204 63.1439 73.2218C62.7375 73.2189 62.3486 73.0545 62.0623 72.7643C61.7759 72.4741 61.6152 72.0817 61.6152 71.6727V23.4327C61.6152 23.0248 61.7763 22.6335 62.063 22.3451C62.3496 22.0566 62.7384 21.8945 63.1439 21.8945C63.243 21.896 63.3414 21.8776 63.4335 21.8404C63.5255 21.8032 63.6092 21.748 63.6798 21.678C63.7505 21.6079 63.8065 21.5245 63.8448 21.4324C63.8831 21.3404 63.9028 21.2416 63.9027 21.1418V16.5382C63.9027 16.1302 64.0638 15.739 64.3505 15.4505C64.6372 15.1621 65.026 15 65.4314 15H70.0173C70.4237 15 70.8136 15.1617 71.102 15.4499C71.3904 15.738 71.5539 16.1292 71.5568 16.5382V21.1418C71.5568 21.3415 71.6356 21.5329 71.7758 21.6741C71.9161 21.8152 72.1064 21.8945 72.3048 21.8945C72.5055 21.8945 72.7043 21.9343 72.8898 22.0116C73.0753 22.0889 73.2438 22.2022 73.3857 22.3451C73.5276 22.4879 73.6402 22.6575 73.7171 22.8441C73.7939 23.0307 73.8334 23.2307 73.8334 23.4327V71.6727C73.8334 72.0817 73.6727 72.4741 73.3864 72.7643C73.1 73.0545 72.7112 73.2189 72.3048 73.2218C72.1064 73.2218 71.9161 73.3011 71.7758 73.4423C71.6356 73.5834 71.5568 73.7749 71.5568 73.9745V78.5673C71.5539 78.9762 71.3904 79.3674 71.102 79.6556C70.8136 79.9437 70.4237 80.1055 70.0173 80.1055C69.8189 80.1055 69.6286 80.1848 69.4883 80.3259C69.348 80.4671 69.2692 80.6585 69.2692 80.8582V85.4618C69.2692 85.6656 69.229 85.8675 69.1508 86.0555C69.0726 86.2436 68.9581 86.4141 68.8139 86.5573C68.6696 86.7004 68.4985 86.8132 68.3105 86.8892C68.1226 86.9652 67.9215 87.0029 67.7189 87Z" fill="#BDDFF4"/>
<rect x="66.584" y="23" width="1.98758" height="59" fill="#93C9EB" fill-opacity="0.5"/>
<rect x="63.6016" y="15" width="7.95031" height="9" fill="#5398C3"/>
<path d="M65.5898 80H69.565V85.0124C69.565 86.1101 68.6751 87 67.5774 87C66.4797 87 65.5898 86.1101 65.5898 85.0124V80Z" fill="#5398C3"/>
<rect y="13" width="53.2969" height="72" fill="#5398C3"/>
<rect x="2.48828" y="15.5" width="52.2969" height="71" fill="white" stroke="#5398C3"/>
<path d="M35.4869 38.7597C35.2746 38.7777 35.0609 38.7511 34.8593 38.6817C34.6578 38.6123 34.4727 38.5015 34.3159 38.3565C34.1591 38.2114 34.0339 38.0351 33.9482 37.8388C33.8626 37.6425 33.8184 37.4305 33.8184 37.2161C33.8184 37.0017 33.8626 36.7897 33.9482 36.5934C34.0339 36.3971 34.1591 36.2208 34.3159 36.0757C34.4727 35.9306 34.6578 35.8199 34.8593 35.7504C35.0609 35.681 35.2746 35.6545 35.4869 35.6724H44.6153C44.9999 35.705 45.3583 35.8817 45.6195 36.1676C45.8807 36.4535 46.0257 36.8277 46.0257 37.2161C46.0257 37.6044 45.8807 37.9786 45.6195 38.2645C45.3583 38.5504 44.9999 38.7272 44.6153 38.7597H35.4869Z" fill="#FFBB01"/>
<path d="M35.4869 54.8183C35.2746 54.8363 35.0609 54.8097 34.8593 54.7403C34.6578 54.6709 34.4727 54.5601 34.3159 54.415C34.1591 54.27 34.0339 54.0937 33.9482 53.8974C33.8626 53.7011 33.8184 53.4891 33.8184 53.2747C33.8184 53.0603 33.8626 52.8483 33.9482 52.652C34.0339 52.4557 34.1591 52.2794 34.3159 52.1343C34.4727 51.9892 34.6578 51.8785 34.8593 51.809C35.0609 51.7396 35.2746 51.7131 35.4869 51.731H44.6153C44.9999 51.7636 45.3583 51.9403 45.6195 52.2262C45.8807 52.5121 46.0257 52.8863 46.0257 53.2747C46.0257 53.663 45.8807 54.0372 45.6195 54.3231C45.3583 54.609 44.9999 54.7858 44.6153 54.8183H35.4869Z" fill="#FFBB01"/>
<path d="M35.4869 70.9199C35.2746 70.9379 35.0609 70.9113 34.8593 70.8419C34.6578 70.7725 34.4727 70.6617 34.3159 70.5166C34.1591 70.3715 34.0339 70.1952 33.9482 69.9989C33.8626 69.8027 33.8184 69.5906 33.8184 69.3762C33.8184 69.1619 33.8626 68.9498 33.9482 68.7535C34.0339 68.5572 34.1591 68.381 34.3159 68.2359C34.4727 68.0908 34.6578 67.98 34.8593 67.9106C35.0609 67.8412 35.2746 67.8146 35.4869 67.8326H44.6153C44.9999 67.8652 45.3583 68.0419 45.6195 68.3278C45.8807 68.6137 46.0257 68.9879 46.0257 69.3762C46.0257 69.7646 45.8807 70.1388 45.6195 70.4247C45.3583 70.7106 44.9999 70.8873 44.6153 70.9199H35.4869Z" fill="#FFBB01"/>
<path d="M17.2198 41.062C17.0179 41.062 16.818 41.0215 16.6319 40.9428C16.4457 40.8642 16.277 40.7489 16.1357 40.6038L11.5715 36.0111C11.2855 35.7209 11.125 35.3288 11.125 34.9202C11.125 34.5115 11.2855 34.1194 11.5715 33.8293C11.8598 33.5415 12.2495 33.38 12.6556 33.38C13.0617 33.38 13.4514 33.5415 13.7397 33.8293L16.6886 36.7965C16.7576 36.8719 16.8414 36.9321 16.9347 36.9732C17.028 37.0143 17.1288 37.0356 17.2307 37.0356C17.3325 37.0356 17.4333 37.0143 17.5266 36.9732C17.6199 36.9321 17.7037 36.8719 17.7727 36.7965L25.2966 29.2365C25.5835 28.9455 25.9734 28.7807 26.3807 28.7783C26.5828 28.7771 26.7831 28.817 26.9694 28.8958C27.1558 28.9745 27.3243 29.0904 27.4649 29.2365C27.7509 29.5267 27.9114 29.9188 27.9114 30.3274C27.9114 30.7361 27.7509 31.1282 27.4649 31.4183L18.3039 40.6365C18.1599 40.7757 17.9901 40.8849 17.804 40.958C17.618 41.031 17.4194 41.0663 17.2198 41.062Z" fill="#5398C3"/>
<path d="M17.2198 57.1421C17.0179 57.1421 16.818 57.1016 16.6319 57.0229C16.4457 56.9442 16.277 56.829 16.1357 56.6839L11.5715 52.0912C11.2855 51.801 11.125 51.4089 11.125 51.0002C11.125 50.5916 11.2855 50.1995 11.5715 49.9093C11.8598 49.6215 12.2495 49.4601 12.6556 49.4601C13.0617 49.4601 13.4514 49.6215 13.7397 49.9093L16.6886 52.8766C16.7576 52.952 16.8414 53.0121 16.9347 53.0533C17.028 53.0944 17.1288 53.1157 17.2307 53.1157C17.3325 53.1157 17.4333 53.0944 17.5266 53.0533C17.6199 53.0121 17.7037 52.952 17.7727 52.8766L25.2966 45.3166C25.5835 45.0256 25.9734 44.8608 26.3807 44.8584C26.5828 44.8572 26.7831 44.8971 26.9694 44.9758C27.1558 45.0546 27.3243 45.1705 27.4649 45.3166C27.7509 45.6067 27.9114 45.9989 27.9114 46.4075C27.9114 46.8162 27.7509 47.2083 27.4649 47.4984L18.3365 56.6839C18.1913 56.833 18.0174 56.9506 17.8253 57.0294C17.6332 57.1082 17.4272 57.1465 17.2198 57.1421Z" fill="#5398C3"/>
<path d="M17.2198 73.2217C17.0179 73.2217 16.818 73.1812 16.6319 73.1025C16.4457 73.0238 16.277 72.9086 16.1357 72.7635L11.5715 68.1708C11.2855 67.8806 11.125 67.4885 11.125 67.0798C11.125 66.6712 11.2855 66.2791 11.5715 65.9889C11.8598 65.7011 12.2495 65.5397 12.6556 65.5397C13.0617 65.5397 13.4514 65.7011 13.7397 65.9889L16.6886 68.9998C16.7593 69.0724 16.8436 69.1301 16.9367 69.1694C17.0297 69.2088 17.1297 69.229 17.2307 69.229C17.3316 69.229 17.4316 69.2088 17.5247 69.1694C17.6177 69.1301 17.7021 69.0724 17.7727 68.9998L25.2966 61.3635C25.5835 61.0724 25.9734 60.9077 26.3807 60.9053C26.5828 60.904 26.7831 60.944 26.9694 61.0227C27.1558 61.1015 27.3243 61.2174 27.4649 61.3635C27.7509 61.6536 27.9114 62.0457 27.9114 62.4544C27.9114 62.8631 27.7509 63.2552 27.4649 63.5453L18.3365 72.7308C18.1941 72.8858 18.0215 73.0094 17.8293 73.0939C17.6371 73.1784 17.4295 73.2219 17.2198 73.2217Z" fill="#5398C3"/>
</svg>
