<svg width="81" height="83" viewBox="0 0 81 83" fill="none" xmlns="http://www.w3.org/2000/svg">
<path d="M40.5047 80C62.7034 80 80.6989 62.0914 80.6989 40C80.6989 17.9086 62.7034 0 40.5047 0C18.3061 0 0.310547 17.9086 0.310547 40C0.310547 62.0914 18.3061 80 40.5047 80Z" fill="#EBF4F9"/>
<mask id="mask0" style="mask-type:alpha" maskUnits="userSpaceOnUse" x="8" y="10" width="65" height="67">
<path d="M8.46289 10H72.91V76.3036H8.46289V10Z" fill="white"/>
</mask>
<g mask="url(#mask0)">
<path fill-rule="evenodd" clip-rule="evenodd" d="M70.2859 43.1888C70.2859 42.2207 70.8959 41.1499 71.5408 40.0162C72.3336 38.6251 73.1523 37.1866 72.8431 35.815C72.5327 34.4427 71.1764 33.5012 69.8643 32.5902C68.7951 31.8478 67.7849 31.1468 67.3687 30.273C66.9301 29.3531 67.0215 28.031 67.1107 26.7529C67.2193 25.186 67.3311 23.5664 66.496 22.5125C65.642 21.4356 64.0284 21.1817 62.4679 20.936C61.2245 20.7402 59.9381 20.5377 59.1661 19.9185C58.388 19.2938 57.9044 18.072 57.4371 16.8913C56.8562 15.4212 56.2544 13.9013 55.0305 13.3061C54.6442 13.1179 54.2084 13.0267 53.6991 13.0267C52.7767 13.0267 51.75 13.336 50.7568 13.6346C49.5329 14.0036 48.2182 14.364 47.3065 14.1525C46.3543 13.9323 45.403 13.0515 44.4825 12.1995C43.3147 11.1183 42.1076 9.99994 40.7233 9.99994C39.4001 9.99994 38.2166 11.0884 37.0715 12.1407C36.1227 13.0128 35.1417 13.9146 34.1362 14.1444C33.1953 14.3584 31.8699 13.9887 30.6277 13.6111C29.6373 13.3088 28.6146 12.9968 27.7009 12.9968C27.2088 12.9968 26.7883 13.0841 26.4139 13.2644C25.1662 13.8654 24.5572 15.3975 23.9684 16.8798C23.5041 18.0473 23.0243 19.2551 22.2606 19.867C21.4753 20.4956 20.1796 20.6998 18.9257 20.8967C17.3756 21.1407 15.7733 21.3931 14.9303 22.4549C14.0817 23.5228 14.1917 25.1544 14.2986 26.733C14.3845 28.0013 14.4731 29.3125 14.0387 30.2138C13.6089 31.1075 12.5358 31.8484 11.4978 32.5648C10.1955 33.4634 8.84901 34.3929 8.54133 35.7349C8.24024 37.0478 9.03727 38.4604 9.80795 39.8259C10.4375 40.9408 11.0878 42.0934 11.0871 43.1141C11.0871 44.0825 10.4773 45.153 9.83218 46.2869C9.03939 47.6778 8.22048 49.1165 8.52985 50.4878C8.8403 51.8603 10.1966 52.8018 11.5089 53.7129C12.5779 54.4556 13.5878 55.1564 14.0039 56.0299C14.4427 56.9505 14.3513 58.2726 14.2623 59.5507C14.1537 61.1176 14.0409 62.737 14.8764 63.791C15.7297 64.868 17.3435 65.1219 18.9047 65.3675C20.1485 65.5632 21.4345 65.7661 22.2062 66.3851C22.9846 67.0096 23.468 68.2315 23.9357 69.412C24.517 70.8821 25.1181 72.4022 26.3423 72.9975C26.7286 73.1853 27.1642 73.2771 27.6733 73.2762C28.5959 73.2762 29.623 72.9678 30.6156 72.6684C31.8401 72.2999 33.1569 71.9392 34.0661 72.1506C35.0185 72.3704 35.9695 73.2515 36.89 74.1035C38.057 75.1847 39.2645 76.3036 40.6485 76.3036C41.9722 76.3036 43.1562 75.2152 44.3013 74.1626C45.25 73.2903 46.2311 72.3884 47.2366 72.1585C48.177 71.9458 49.5029 72.3138 50.7451 72.6921C51.7357 72.9941 52.7584 73.3061 53.6721 73.3061C54.164 73.3061 54.5847 73.219 54.9591 73.0383C56.2075 72.4377 56.8162 70.9054 57.4048 69.4238C57.8687 68.2557 58.3485 67.048 59.1126 66.4359C59.8977 65.8073 61.1943 65.6033 62.4475 65.406C63.9976 65.1619 65.6004 64.9105 66.4437 63.8479C67.2915 62.7799 67.1813 61.1483 67.0746 59.5699C66.989 58.3016 66.9006 56.9906 67.3342 56.0891C67.7647 55.1954 68.8372 54.4547 69.8749 53.7388C71.1773 52.8398 72.524 51.91 72.8315 50.5683C73.1328 49.2556 72.3355 47.8427 71.565 46.4772C70.9354 45.3623 70.2855 44.2096 70.2859 43.1888Z" fill="#5398C3"/>
</g>
<path fill-rule="evenodd" clip-rule="evenodd" d="M66.0557 43.1512C66.0557 57.2357 54.6978 68.6526 40.6861 68.6526C26.6746 68.6526 15.3164 57.2357 15.3164 43.1512C15.3164 29.067 26.6746 17.6499 40.6861 17.6499C54.6978 17.6499 66.0557 29.067 66.0557 43.1512Z" fill="#E5F0F9"/>
<path d="M33.2029 55.3783C33.882 55.3747 34.4974 55.2113 35.049 54.888C35.6006 54.5647 36.0282 54.1168 36.3318 53.5443C36.6354 52.9718 36.7873 52.3244 36.7873 51.602V51.239C36.7837 50.5238 36.6265 49.8781 36.3156 49.302C36.0048 48.7259 35.5727 48.2798 35.0193 47.9638C34.4659 47.6477 33.8425 47.4897 33.149 47.4897H30.621V55.3783H33.2029ZM33.1705 53.9155H32.5129V48.958H33.149C33.7059 48.958 34.13 49.1512 34.421 49.5377C34.7121 49.9242 34.8576 50.4985 34.8576 51.2606V51.602C34.8576 52.3677 34.7121 52.9447 34.421 53.333C34.13 53.7213 33.7131 53.9155 33.1705 53.9155ZM39.1697 55.3783L39.6224 53.9046H42.2151L42.6732 55.3783H44.7053L41.8054 47.4897H40.0267L37.1484 55.3783H39.1697ZM41.7623 52.4363H40.0752L40.9161 49.7002L41.7623 52.4363ZM49.109 55.3783V52.5447L51.6369 47.4897H49.5941L48.1495 50.9139L46.6996 47.4897H44.6675L47.1901 52.5447V55.3783H49.109Z" fill="#337CAF"/>
<path d="M35.8953 42.8555C37.4542 42.8555 38.6621 42.3354 39.5191 41.2951C40.3761 40.2549 40.8046 38.7758 40.8046 36.8578V34.2734C40.8046 32.3619 40.3745 30.8828 39.5142 29.836C38.654 28.7893 37.4412 28.2659 35.8759 28.2659C34.3107 28.2659 33.0995 28.786 32.2425 29.8263C31.3855 30.8665 30.957 32.3456 30.957 34.2636V36.8578C30.957 38.7628 31.3871 40.2386 32.2473 41.2854C33.1076 42.3322 34.3236 42.8555 35.8953 42.8555ZM35.8953 40.3199C35.3197 40.3199 34.8993 40.0745 34.6341 39.5836C34.3689 39.0927 34.2363 38.3174 34.2363 37.2576V33.6297C34.2557 32.6805 34.3931 31.9718 34.6486 31.5037C34.9041 31.0356 35.3132 30.8015 35.8759 30.8015C36.4516 30.8015 36.872 31.0534 37.1372 31.5573C37.4024 32.0612 37.535 32.8235 37.535 33.8443V37.3552C37.5285 38.3759 37.3927 39.1252 37.1275 39.6031C36.8623 40.081 36.4516 40.3199 35.8953 40.3199ZM47.0431 42.6605L52.321 30.2164V28.4609H42.1435V30.9966H48.8768L43.5891 42.6605H47.0431Z" fill="#337CAF"/>
<path d="M9.48521 80.5133C10.0413 81.465 11.1516 81.9353 12.2201 81.6933C21.374 79.6204 30.9009 78.5181 40.6873 78.5181C50.4742 78.5181 59.9998 79.6204 69.1538 81.6933C70.2224 81.9353 71.3326 81.465 71.8887 80.5132L78.815 68.6595C79.6418 67.2444 78.9065 65.4187 77.3061 65.0082C65.603 62.0063 53.3331 60.404 40.6873 60.404C28.0412 60.404 15.7698 62.0063 4.06722 65.0082C2.46688 65.4187 1.73159 67.2445 2.55845 68.6595L9.48521 80.5133Z" fill="white" stroke="white"/>
<path fill-rule="evenodd" clip-rule="evenodd" d="M9.9169 80.261C10.3613 81.0215 11.2506 81.4002 12.1097 81.2057C21.2993 79.1246 30.8632 78.0181 40.6873 78.0181C50.5119 78.0181 60.0745 79.1246 69.2642 81.2057C70.1234 81.4002 71.0126 81.0215 71.457 80.261L78.3833 68.4072C79.0459 67.2732 78.4542 65.8189 77.1819 65.4925C65.5189 62.5009 53.2907 60.904 40.6873 60.904C28.0836 60.904 15.8539 62.5009 4.19145 65.4925C2.91918 65.8188 2.32747 67.2732 2.99014 68.4072L9.9169 80.261Z" fill="#F79633"/>
<path d="M15.9831 71.5885L15.0605 71.7314L15.3863 73.7878L14.2283 73.9671L13.3381 68.3497L15.4265 68.0263C16.0905 67.9235 16.626 67.992 17.0332 68.232C17.4403 68.472 17.6867 68.8621 17.7723 69.4022C17.833 69.7854 17.8001 70.1186 17.6736 70.4017C17.5493 70.6819 17.3305 70.9239 17.0175 71.1279L18.5972 73.2351L18.6058 73.2892L17.3628 73.4817L15.9831 71.5885ZM14.9119 70.7939L15.8461 70.6492C16.1369 70.6042 16.3505 70.496 16.4868 70.3247C16.6227 70.1508 16.6701 69.9339 16.6289 69.6742C16.5869 69.4092 16.478 69.2127 16.3021 69.0844C16.1288 68.9558 15.8864 68.9156 15.5751 68.9638L14.6447 69.1079L14.9119 70.7939Z" fill="white"/>
<path d="M26.0695 69.9631L23.8312 70.1921L23.9913 71.7071L26.6182 71.4384L26.7171 72.3746L22.9244 72.7626L22.3267 67.1066L26.1116 66.7194L26.2114 67.6633L23.5923 67.9313L23.7347 69.2792L25.973 69.0503L26.0695 69.9631Z" fill="white"/>
<path d="M34.4948 67.1099L32.7551 67.2028L33.0163 71.9339L31.8461 71.9964L31.5849 67.2654L29.8686 67.3571L29.8163 66.4093L34.4425 66.1621L34.4948 67.1099Z" fill="white"/>
<path d="M41.9642 66.0614L41.9737 69.8075C41.9753 70.4299 41.7813 70.9225 41.3915 71.2855C41.0044 71.6484 40.4737 71.8306 39.7992 71.8322C39.1351 71.8338 38.6073 71.6593 38.2158 71.3087C37.8243 70.9581 37.6239 70.4755 37.6145 69.8609L37.6049 66.0719L38.7768 66.0691L38.7863 69.823C38.7872 70.1953 38.8764 70.4673 39.054 70.6387C39.2341 70.8076 39.4817 70.8916 39.7968 70.8908C40.4556 70.8893 40.7894 70.5421 40.7981 69.8494L40.7885 66.0642L41.9642 66.0614Z" fill="white"/>
<path d="M47.8784 69.8985L46.946 69.8509L46.8365 71.9301L45.6661 71.8704L45.9654 66.1908L48.076 66.2984C48.747 66.3327 49.2566 66.5086 49.605 66.8262C49.9533 67.1439 50.1131 67.5757 50.0844 68.1219C50.0639 68.5093 49.9623 68.8288 49.7796 69.0802C49.5996 69.3292 49.3352 69.5217 48.9864 69.6578L50.0929 72.0414L50.0901 72.096L48.8339 72.032L47.8784 69.8985ZM46.996 68.903L47.9401 68.9512C48.234 68.9662 48.4654 68.9037 48.6345 68.7637C48.8037 68.6211 48.8952 68.4184 48.9091 68.1558C48.9232 67.8879 48.8576 67.6734 48.7122 67.5121C48.5694 67.351 48.3407 67.2624 48.026 67.2463L47.0858 67.1984L46.996 68.903Z" fill="white"/>
<path d="M58.6291 72.9321L57.4636 72.81L55.5974 68.8518L55.1948 72.5723L54.0293 72.4502L54.6412 66.7957L55.8067 66.9178L57.676 70.8841L58.0794 67.1559L59.241 67.2776L58.6291 72.9321Z" fill="white"/>
<path d="M65.9146 72.4844C65.9499 72.2659 65.8998 72.0867 65.7641 71.9469C65.6289 71.8045 65.371 71.6375 64.9904 71.4461C64.6103 71.2522 64.3133 71.0739 64.0996 70.9112C63.5173 70.4668 63.2733 69.9528 63.3678 69.3693C63.4168 69.0659 63.5454 68.8093 63.7535 68.5994C63.9645 68.3873 64.2404 68.2394 64.5811 68.1557C64.9243 68.0724 65.2953 68.062 65.6941 68.1244C66.0954 68.1873 66.4412 68.3166 66.7314 68.5123C67.022 68.7054 67.232 68.9478 67.3616 69.2396C67.4937 69.5318 67.5325 69.8463 67.478 70.183L66.3202 70.0017C66.3618 69.7446 66.313 69.5327 66.1738 69.3659C66.035 69.1966 65.819 69.089 65.5257 69.043C65.2427 68.9987 65.0129 69.0247 64.8364 69.1209C64.6603 69.2146 64.5565 69.3591 64.5249 69.5545C64.4954 69.737 64.5619 69.9043 64.7246 70.0563C64.8899 70.2087 65.1426 70.3669 65.4828 70.5308C66.1094 70.8319 66.5495 71.1526 66.8031 71.4928C67.0567 71.833 67.1481 72.2216 67.0774 72.6587C66.9988 73.1445 66.7531 73.4975 66.3403 73.7175C65.9278 73.9349 65.4103 73.9949 64.7877 73.8974C64.3555 73.8297 63.9745 73.6896 63.6448 73.4772C63.3156 73.2622 63.0793 73.0025 62.936 72.698C62.7953 72.3939 62.7542 72.0606 62.8129 71.6982L63.9745 71.8801C63.8742 72.4996 64.1946 72.8674 64.9356 72.9835C65.2109 73.0266 65.4346 73.005 65.6069 72.9186C65.7796 72.8297 65.8821 72.685 65.9146 72.4844Z" fill="white"/>
</svg>
