<svg width="24" height="24" viewBox="0 0 24 24" fill="none" xmlns="http://www.w3.org/2000/svg">
<path d="M20.9638 16.4765V19.1862C20.9648 19.4377 20.9133 19.6867 20.8125 19.9172C20.7117 20.1477 20.5639 20.3546 20.3786 20.5247C20.1932 20.6947 19.9743 20.8242 19.7361 20.9048C19.4978 20.9854 19.2453 21.0153 18.9947 20.9927C16.2153 20.6907 13.5455 19.7409 11.1997 18.2197C9.01735 16.8329 7.16706 14.9827 5.78028 12.8003C4.25379 10.4439 3.30381 7.76107 3.00733 4.96915C2.98476 4.71938 3.01444 4.46764 3.09449 4.22996C3.17454 3.99229 3.30321 3.77389 3.47229 3.58866C3.64137 3.40343 3.84717 3.25544 4.07658 3.15411C4.30599 3.05278 4.55399 3.00032 4.80478 3.00009H7.51451C7.95286 2.99577 8.37782 3.151 8.71019 3.43683C9.04255 3.72267 9.25964 4.11961 9.32099 4.55366C9.43536 5.42084 9.64747 6.27229 9.95326 7.09177C10.0748 7.41507 10.1011 7.76642 10.0291 8.1042C9.95701 8.44198 9.78965 8.75203 9.5468 8.99761L8.39969 10.1447C9.6855 12.406 11.5578 14.2784 13.8191 15.5642L14.9663 14.4171C15.2118 14.1742 15.5219 14.0069 15.8597 13.9348C16.1975 13.8628 16.5488 13.8891 16.8721 14.0106C17.6916 14.3164 18.543 14.5285 19.4102 14.6429C19.849 14.7048 20.2497 14.9258 20.5361 15.2639C20.8226 15.6019 20.9748 16.0335 20.9638 16.4765Z" stroke="url(#paint0_linear)" stroke-width="1.5" stroke-linecap="round" stroke-linejoin="round"/>
<defs>
<linearGradient id="paint0_linear" x1="11.9822" y1="-6" x2="-6.01779" y2="11.9643" gradientUnits="userSpaceOnUse">
<stop stop-color="#F69B00"/>
<stop offset="1" stop-color="#ED6A00"/>
</linearGradient>
</defs>
</svg>
