<svg width="36" height="36" viewBox="0 0 36 36" fill="none" xmlns="http://www.w3.org/2000/svg">
<circle cx="18" cy="18" r="17.5" fill="white" stroke="#E3F0F5"/>
<rect x="6.00076" y="6.00018" width="24" height="24" rx="2" fill="white"/>
<path fill-rule="evenodd" clip-rule="evenodd" d="M12.3043 13.4989C12.4994 13.1674 13.5749 11.9643 14.3412 12.0006C14.5705 12.0207 14.7732 12.1621 14.9378 12.3269C15.3153 12.7056 16.399 14.1352 16.4598 14.4361C16.6099 15.1742 15.7504 15.5997 16.0133 16.3436C16.6834 18.0228 17.838 19.2052 19.4784 19.8908C20.2042 20.1606 20.6197 19.2811 21.3404 19.4342C21.6343 19.4971 23.0309 20.6055 23.4001 20.9928C23.5604 21.1607 23.6997 21.3689 23.7187 21.6037C23.7472 22.4307 22.4995 23.5469 22.2563 23.6896C21.6825 24.1106 20.9338 24.1028 20.0212 23.6682C17.4744 22.5831 13.4045 18.4937 12.3252 15.7871C11.9123 14.8577 11.8844 14.0859 12.3043 13.4989Z" stroke="#0059A3" stroke-width="1.5" stroke-linecap="round" stroke-linejoin="round"/>
<path d="M19.1321 12.3494C21.4151 12.6089 23.2177 14.4532 23.4742 16.7906" stroke="#F8931F" stroke-width="1.5" stroke-linecap="round" stroke-linejoin="round"/>
<path d="M19.1321 14.5869C20.2237 14.8048 21.0765 15.6783 21.2893 16.7962" stroke="#F8931F" stroke-width="1.5" stroke-linecap="round" stroke-linejoin="round"/>
</svg>
