<svg width="140" height="68" viewBox="0 0 140 68" fill="none" xmlns="http://www.w3.org/2000/svg">
<path d="M34.788 21.268H19.7032C18.4685 21.268 17.4629 20.2623 17.4629 19.0277C17.4629 17.793 18.4685 16.7874 19.7032 16.7874H34.788C36.0226 16.7874 37.0283 17.793 37.0283 19.0277C37.0283 20.2623 36.0226 21.268 34.788 21.268Z" fill="#F59121"/>
<path d="M34.787 28.4269H19.7022C18.4676 28.4269 17.4619 27.4213 17.4619 26.1866C17.4619 24.9519 18.4676 23.9463 19.7022 23.9463H34.787C36.0217 23.9463 37.0273 24.9519 37.0273 26.1866C37.0273 27.4213 36.0217 28.4269 34.787 28.4269Z" fill="#F59121"/>
<path d="M30.8246 47.4747C30.2172 47.4747 29.6098 47.2258 29.1717 46.7478L18.3784 34.9688C17.6914 34.212 17.5918 33.0869 18.1494 32.2306C18.6672 31.434 19.633 31.0557 20.5391 31.2747C21.3257 31.4042 24.5716 31.5834 26.3539 30.0699C27.2799 29.2833 27.718 28.0985 27.6981 26.4357C27.6483 23.0105 24.6214 21.6663 23.4565 21.4472C22.2417 21.2083 21.4451 20.0333 21.6841 18.8186C21.9231 17.6039 23.098 16.8073 24.3127 17.0463C28.176 17.793 32.119 21.2381 32.1887 26.3759C32.2385 30.4782 30.3765 32.7085 28.7934 33.8635C27.6085 34.7298 26.2643 35.2376 24.96 35.5164L32.4774 43.7209C33.3138 44.637 33.2541 46.0508 32.338 46.8872C31.9099 47.2855 31.3623 47.4747 30.8246 47.4747Z" fill="#F59121"/>
<path d="M43.8305 65.1687H11.6397C5.21744 65.1687 0 59.9413 0 53.5291V11.6502C0 5.22794 5.22739 0.010498 11.6397 0.010498H21.0788C22.3135 0.010498 23.3192 1.01615 23.3192 2.25081C23.3192 3.48547 22.3135 4.49112 21.0788 4.49112H11.6397C7.68676 4.49112 4.48062 7.70721 4.48062 11.6502V53.5291C4.48062 57.482 7.69672 60.6881 11.6397 60.6881H43.8305C47.7834 60.6881 50.9895 57.472 50.9895 53.5291V18.8192C50.9895 17.5845 51.9952 16.5789 53.2298 16.5789C54.4645 16.5789 55.4701 17.5845 55.4701 18.8192V53.5291C55.4801 59.9413 50.2527 65.1687 43.8305 65.1687Z" fill="#0872B9"/>
<path d="M53.2422 13.88C52.0075 13.88 51.0019 12.8743 51.0019 11.6397C51.0019 7.68676 47.7858 4.48062 43.8428 4.48062H36.0167C34.782 4.48062 33.7764 3.47497 33.7764 2.24031C33.7764 1.00565 34.782 0 36.0167 0H43.8428C50.2651 0 55.4825 5.22739 55.4825 11.6397C55.4825 12.8743 54.4769 13.88 53.2422 13.88Z" fill="#0872B9"/>
<path d="M133.66 54.4546H137.235" stroke="#0973B9" stroke-width="5" stroke-linecap="round" stroke-linejoin="round"/>
<path d="M54.2441 8.97122H66.7998C66.7998 8.97122 74.7057 7.64695 88.1674 13.2627C99.4586 17.9623 112.562 27.2223 112.562 27.2223C112.562 27.2223 127.706 28.3375 132.466 34.2917C135.065 37.5476 136.857 46.6583 136.857 46.6583" stroke="#0973B9" stroke-width="5" stroke-linecap="round" stroke-linejoin="round"/>
<path d="M62.6875 44.3582H82.9797" stroke="#F59122" stroke-width="5" stroke-linecap="round" stroke-linejoin="round"/>
<path d="M63.0957 53.4788H92.4289" stroke="#0973B9" stroke-width="5" stroke-linecap="round" stroke-linejoin="round"/>
<path d="M113.288 54.6536H125.754" stroke="#0973B9" stroke-width="5" stroke-linecap="round" stroke-linejoin="round"/>
<path fill-rule="evenodd" clip-rule="evenodd" d="M97.7068 28.2678C97.7068 28.2678 80.0432 16.3394 65.4463 17.2056V27.9392L97.7068 28.2678Z" stroke="#0973B9" stroke-width="5" stroke-linecap="round" stroke-linejoin="round"/>
<circle cx="102.734" cy="54.6538" r="9.85737" stroke="#0973B9" stroke-width="5" stroke-linecap="round" stroke-linejoin="round"/>
<path d="M119.036 44.856H123.915" stroke="#0973B9" stroke-width="5" stroke-linecap="round" stroke-linejoin="round"/>
</svg>
