<svg width="123" height="86" viewBox="0 0 123 86" fill="none" xmlns="http://www.w3.org/2000/svg">
<path d="M67.914 66.5145H62.6866C61.4519 66.5145 60.4463 65.5088 60.4463 64.2742C60.4463 63.0395 61.4519 62.0339 62.6866 62.0339H66.978C67.6949 61.2074 68.6409 59.7836 68.5811 58.3398C68.5313 57.0853 67.6949 55.8406 66.1018 54.6458C65.1061 53.909 64.907 52.5051 65.6438 51.5094C66.3806 50.5137 67.7846 50.3145 68.7803 51.0514C71.5184 53.1025 72.9622 55.5021 73.0617 58.1905C73.221 62.5018 69.7859 65.6184 69.3876 65.9569C68.9694 66.3153 68.4517 66.5145 67.914 66.5145Z" fill="#0872B9"/>
<path d="M116.972 77.4271H82.5805C81.3458 77.4271 80.3401 76.4215 80.3401 75.1868C80.3401 73.9521 81.3458 72.9465 82.5805 72.9465H114.771C114.881 67.2013 115.11 51.8477 114.731 47.1978C114.433 43.5237 109.086 40.6462 107.055 39.8496C106.557 39.6604 106.149 39.292 105.9 38.824L98.402 24.8744C98.3821 24.8445 98.3622 24.8047 98.3522 24.7748C97.2968 22.5444 93.9812 20.7223 90.9642 20.7223H72.6036C71.3689 20.7223 70.3633 19.7167 70.3633 18.482C70.3633 17.2474 71.3689 16.2417 72.6036 16.2417H90.9642C95.0764 16.2417 100.304 18.492 102.375 22.8033L109.474 36.0162C111.854 37.1015 118.704 40.7457 119.202 46.8394C119.68 52.7936 119.232 74.3205 119.212 75.2366C119.192 76.4613 118.196 77.4271 116.972 77.4271Z" fill="#0872B9"/>
<path d="M113.001 43.7624H83.21C81.9754 43.7624 80.9697 42.7567 80.9697 41.5221C80.9697 40.2874 81.9754 39.2817 83.21 39.2817H113.001C114.236 39.2817 115.242 40.2874 115.242 41.5221C115.242 42.7567 114.236 43.7624 113.001 43.7624Z" fill="#0872B9"/>
<path d="M63.0063 20.7321H56.2257C54.991 20.7321 53.9854 19.7264 53.9854 18.4918C53.9854 17.2571 54.991 16.2515 56.2257 16.2515H63.0063C64.241 16.2515 65.2467 17.2571 65.2467 18.4918C65.2467 19.7264 64.241 20.7321 63.0063 20.7321Z" fill="#F59121"/>
<path d="M28.5658 20.7321H21.9444C20.7098 20.7321 19.7041 19.7264 19.7041 18.4918C19.7041 17.2571 20.7098 16.2515 21.9444 16.2515H28.5658C29.8004 16.2515 30.8061 17.2571 30.8061 18.4918C30.8061 19.7264 29.8004 20.7321 28.5658 20.7321Z" fill="#F59121"/>
<path d="M36.7101 9.54043C36.1027 9.54043 35.5053 9.30147 35.0672 8.82353L30.4273 3.80523C29.5909 2.89915 29.6407 1.47531 30.5467 0.638925C31.4528 -0.197458 32.8667 -0.147674 33.713 0.758408L38.353 5.77671C39.1894 6.68279 39.1396 8.10663 38.2335 8.94302C37.7954 9.34129 37.2478 9.54043 36.7101 9.54043Z" fill="#F59121"/>
<path d="M49.036 9.54047C48.4883 9.54047 47.9507 9.34133 47.5126 8.94305C46.6065 8.10667 46.5467 6.68283 47.3931 5.77674L52.0728 0.718617C52.9092 -0.187465 54.3331 -0.247206 55.2392 0.599134C56.1452 1.43552 56.205 2.85936 55.3586 3.76544L50.6789 8.82357C50.2408 9.3015 49.6334 9.54047 49.036 9.54047Z" fill="#F59121"/>
<path d="M98.1453 77.4369C97.8765 77.4369 97.6077 77.3872 97.3388 77.2876C96.1838 76.8395 95.6063 75.5451 96.0544 74.3901L96.8609 72.3091C96.6518 68.167 93.0474 66.3051 89.4828 66.3051H82.9112C81.6765 66.3051 80.6709 65.2994 80.6709 64.0648C80.6709 62.8301 81.6765 61.8245 82.9112 61.8245H89.4828C96.363 61.8245 101.351 66.3947 101.351 72.6974C101.351 72.9762 101.302 73.2451 101.202 73.504L100.236 76.0031C99.8978 76.8893 99.0514 77.4369 98.1453 77.4369Z" fill="#0872B9"/>
<path d="M13.7296 77.1481C12.4949 77.1481 11.4893 76.1425 11.4893 74.9078V41.6815C11.4893 40.4468 12.4949 39.4412 13.7296 39.4412C14.9642 39.4412 15.9699 40.4468 15.9699 41.6815V74.9078C15.9699 76.1425 14.9642 77.1481 13.7296 77.1481Z" fill="#0872B9"/>
<path d="M108.889 35.2991H117.949C119.045 35.2991 119.991 35.6077 120.777 36.1155C123.306 37.7584 122.111 41.6914 119.104 41.6914H110.213L108.889 35.2991Z" fill="#0872B9"/>
<path d="M116.974 61.9437H99.838C98.6033 61.9437 97.5977 60.9381 97.5977 59.7034C97.5977 48.7906 116.048 47.5161 116.834 47.4664C118.079 47.3867 119.135 48.3326 119.204 49.5673C119.284 50.8019 118.348 51.8673 117.113 51.947C113.788 52.1561 105.225 53.6098 102.755 57.4731H116.974C118.209 57.4731 119.214 58.4787 119.214 59.7134C119.214 60.9481 118.218 61.9437 116.974 61.9437Z" fill="#0872B9"/>
<path d="M51.9524 85.512H44.644C41.4876 85.512 38.9287 82.9432 38.9287 79.7968V76.033C38.9287 74.7984 39.9344 73.7927 41.169 73.7927C42.4037 73.7927 43.4093 74.7984 43.4093 76.033V79.7968C43.4093 80.4738 43.9669 81.0314 44.644 81.0314H51.9524C52.6295 81.0314 53.1871 80.4738 53.1871 79.7968V76.033C53.1871 74.7984 54.1927 73.7927 55.4274 73.7927C56.662 73.7927 57.6677 74.7984 57.6677 76.033V79.7968C57.6677 82.9531 55.0988 85.512 51.9524 85.512Z" fill="#0872B9"/>
<path d="M112.222 85.512H104.923C101.767 85.512 99.208 82.9432 99.208 79.7968V76.033C99.208 74.7984 100.214 73.7927 101.448 73.7927C102.683 73.7927 103.689 74.7984 103.689 76.033V79.7968C103.689 80.4738 104.246 81.0314 104.923 81.0314H112.222C112.899 81.0314 113.456 80.4738 113.456 79.7968V76.033C113.456 74.7984 114.462 73.7927 115.697 73.7927C116.931 73.7927 117.937 74.7984 117.937 76.033V79.7968C117.937 82.9531 115.368 85.512 112.222 85.512Z" fill="#0872B9"/>
<path d="M66.9604 77.4368H2.24031C1.00565 77.4368 0 76.4312 0 75.1965V41.6814C0 40.4468 1.00565 39.4411 2.24031 39.4411H18.1913L37.0597 18.5216C38.4039 16.7293 40.7239 15.8033 43.1633 16.0821C45.7223 16.3808 47.873 17.9839 48.7791 20.2541C50.3622 24.2369 49.2869 32.5907 45.7721 39.3117H67.2094C67.5778 39.3117 67.9462 39.4013 68.2648 39.5805C68.673 39.7996 72.2775 41.8407 73.0043 45.8534C73.5022 48.6314 72.4965 51.4791 69.9874 54.3267C69.5592 54.8146 68.9518 55.0934 68.3046 55.0934H62.5894C61.3547 55.0934 60.349 54.0878 60.349 52.8531C60.349 51.6185 61.3547 50.6128 62.5894 50.6128H67.2392C68.3345 49.1591 68.7925 47.8348 68.5934 46.6798C68.3445 45.2659 67.1795 44.2603 66.5423 43.7923H41.7196C40.8733 43.7923 40.0966 43.3144 39.7183 42.5576C39.3399 41.8009 39.4195 40.8948 39.9273 40.2078C44.3781 34.2635 45.8318 25.0135 44.5972 21.9069C44.1491 20.7918 42.9742 20.5628 42.6157 20.5229C41.7694 20.4134 40.9828 20.6922 40.6044 21.2199C40.5546 21.2896 40.4949 21.3593 40.4352 21.429L20.82 43.175C20.3918 43.6429 19.7944 43.9118 19.1572 43.9118H4.45075V72.9462H66.0842C67.0899 71.9207 69.0116 69.2522 66.8211 65.369C66.2137 64.2936 66.592 62.9196 67.6674 62.3122C68.7427 61.7048 70.1068 62.0832 70.7242 63.1586C74.4879 69.8198 70.764 75.1069 68.2748 76.9688C67.9163 77.2775 67.4483 77.4368 66.9604 77.4368Z" fill="#0872B9"/>
</svg>
