<svg width="118" height="91" viewBox="0 0 118 91" fill="none" xmlns="http://www.w3.org/2000/svg">
<path d="M52.138 77.2292C52.128 77.2292 52.128 77.2292 52.138 77.2292L13.9531 77.2093C13.9033 77.2093 13.8435 77.2093 13.7938 77.2093C8.81529 77.2093 4.64333 73.1866 4.47406 68.1584C4.026 54.149 3.91648 45.1778 4.14549 41.5136C4.60351 34.3147 12.6885 30.6008 15.5064 29.5255L23.8304 12.4692C26.1205 7.40113 32.2042 4.97163 36.8839 4.89198L53.1635 4.73267C53.1735 4.73267 53.1834 4.73267 53.1834 4.73267C54.4081 4.73267 55.4138 5.7184 55.4237 6.95306C55.4337 8.18773 54.438 9.20333 53.2033 9.21329L36.9337 9.3726C33.618 9.43234 29.3067 11.2047 27.8729 14.371L19.1207 32.3134C18.8519 32.871 18.364 33.2792 17.7765 33.4684C15.3271 34.245 8.89495 37.262 8.6062 41.8123C8.37719 45.3371 8.49667 54.149 8.94473 68.019C9.03435 70.6675 11.2846 72.8083 13.9033 72.7286L52.128 72.7485C53.3627 72.7485 54.3683 73.7542 54.3683 74.9889C54.3683 76.2235 53.3726 77.2292 52.138 77.2292Z" fill="#0872B9"/>
<path d="M11.046 38.1691C9.81132 38.1691 8.80566 37.1635 8.80566 35.9288C8.80566 34.6942 9.80136 33.6885 11.046 33.6885L52.6859 33.6487C53.9206 33.6487 54.9262 34.6543 54.9262 35.889C54.9262 37.1237 53.9305 38.1293 52.6859 38.1293L11.046 38.1691Z" fill="#0872B9"/>
<path d="M28.1709 76.7416C28.1211 76.7416 28.0614 76.7416 28.0116 76.7317C26.7769 76.6421 25.851 75.5767 25.9406 74.342L26.1297 71.6536C26.06 64.395 31.7654 59.0382 39.7309 58.9087L51.5 58.7793C51.51 58.7793 51.52 58.7793 51.5299 58.7793C52.7546 58.7793 53.7503 59.765 53.7702 60.9897C53.7802 62.2244 52.7944 63.24 51.5598 63.2599L39.8006 63.3894C35.32 63.469 30.5208 66.0976 30.6203 71.6835C30.6203 71.7532 30.6203 71.8129 30.6104 71.8826L30.4112 74.6706C30.3216 75.8455 29.3458 76.7416 28.1709 76.7416Z" fill="#0872B9"/>
<path d="M16.8205 28.3611L4.97173 28.5503C3.65742 28.5702 2.52233 28.9585 1.59633 29.5858C-1.40071 31.607 0.112746 36.3067 3.72712 36.247L14.4109 36.0678L16.8205 28.3611Z" fill="#0872B9"/>
<path d="M6.63467 57.9527C5.41992 57.9527 4.41427 56.9769 4.39436 55.7522C4.37444 54.5176 5.36018 53.492 6.59484 53.4721L24.0892 53.1734C21.1021 47.0001 6.49527 46.1537 6.33596 46.1438C5.1013 46.084 4.14543 45.0386 4.19522 43.8039C4.25496 42.5692 5.28053 41.6432 6.5351 41.6632C7.45114 41.703 28.8884 42.8182 29.0975 55.3241C29.1075 55.9215 28.8785 56.489 28.4702 56.9172C28.0521 57.3453 27.4945 57.5943 26.8971 57.6042L6.6745 57.9527C6.66454 57.9527 6.64463 57.9527 6.63467 57.9527Z" fill="#0872B9"/>
<path d="M62.838 9.96041C66.6614 9.96041 66.6714 4.01611 62.838 4.01611C59.0045 4.01611 59.0045 9.96041 62.838 9.96041Z" fill="#0872B9"/>
<path d="M76.0225 34.8932C80.1347 34.8932 80.1347 28.5108 76.0225 28.5108C71.9103 28.5008 71.9003 34.8932 76.0225 34.8932Z" fill="#F69220"/>
<path d="M76.0225 45.9547C80.1347 45.9547 80.1347 39.5723 76.0225 39.5723C71.9103 39.5623 71.9003 45.9547 76.0225 45.9547Z" fill="#F69220"/>
<path d="M76.0225 57.3555C80.1347 57.3555 80.1347 50.9731 76.0225 50.9731C71.9103 50.9731 71.9003 57.3555 76.0225 57.3555Z" fill="#F69220"/>
<path d="M109.021 77.1804H69.2625C64.752 77.1804 61.0879 73.5162 61.0879 69.0057V16.8114C61.0879 15.5768 62.0935 14.5711 63.3282 14.5711C64.5629 14.5711 65.5685 15.5768 65.5685 16.8114V69.0057C65.5685 71.0469 67.2313 72.6998 69.2625 72.6998H109.021C111.062 72.6998 112.715 71.037 112.715 69.0057V12.8685C112.715 10.8273 111.052 9.17447 109.021 9.17447H102.798C101.563 9.17447 100.557 8.16882 100.557 6.93416C100.557 5.6995 101.563 4.69385 102.798 4.69385H109.021C113.531 4.69385 117.195 8.358 117.195 12.8685V69.0057C117.195 73.5063 113.521 77.1804 109.021 77.1804Z" fill="#0872B9"/>
<path fill-rule="evenodd" clip-rule="evenodd" d="M77.656 14.5411H99.8202C100.965 14.5411 101.921 13.6848 102.021 12.5397L103.106 2.54295C103.176 1.9057 102.967 1.27841 102.548 0.800482C102.13 0.322548 101.523 0.0537109 100.886 0.0537109H76.5608C75.9335 0.0537109 75.3161 0.322548 74.8979 0.800482C74.4798 1.27841 74.2707 1.9057 74.3404 2.54295L75.4257 12.5397C75.5551 13.6748 76.511 14.5411 77.656 14.5411ZM97.8097 10.0604H79.6681L79.0707 4.54427H98.4071L97.8097 10.0604Z" fill="#0872B9"/>
<path d="M77.0603 9.36295H71.8927C70.658 9.36295 69.6523 8.3573 69.6523 7.12264C69.6523 5.88798 70.658 4.88232 71.8927 4.88232H77.0603C78.295 4.88232 79.3006 5.88798 79.3006 7.12264C79.3006 8.3573 78.295 9.36295 77.0603 9.36295Z" fill="#0872B9"/>
<path d="M101.979 33.4591H86.0382C84.8035 33.4591 83.7979 32.4535 83.7979 31.2188C83.7979 29.9842 84.8035 28.9785 86.0382 28.9785H101.979C103.214 28.9785 104.22 29.9842 104.22 31.2188C104.22 32.4535 103.214 33.4591 101.979 33.4591Z" fill="#0872B9"/>
<path d="M101.979 44.9787H86.0382C84.8035 44.9787 83.7979 43.973 83.7979 42.7384C83.7979 41.5037 84.8035 40.498 86.0382 40.498H101.979C103.214 40.498 104.22 41.5037 104.22 42.7384C104.22 43.973 103.214 44.9787 101.979 44.9787Z" fill="#0872B9"/>
<path d="M101.979 56.1608H86.0382C84.8035 56.1608 83.7979 55.1551 83.7979 53.9205C83.7979 52.6858 84.8035 51.6802 86.0382 51.6802H101.979C103.214 51.6802 104.22 52.6858 104.22 53.9205C104.22 55.1551 103.214 56.1608 101.979 56.1608Z" fill="#0872B9"/>
<path d="M33.0995 83.7912H17.9649C16.7303 83.7912 15.7246 82.7855 15.7246 81.5509C15.7246 80.3162 16.7303 79.3105 17.9649 79.3105H33.0995C34.3341 79.3105 35.3398 80.3162 35.3398 81.5509C35.3398 82.7855 34.3441 83.7912 33.0995 83.7912Z" fill="#0872B9"/>
<path d="M33.0995 90.7611H17.9649C16.7303 90.7611 15.7246 89.7555 15.7246 88.5208C15.7246 87.2862 16.7303 86.2805 17.9649 86.2805H33.0995C34.3341 86.2805 35.3398 87.2862 35.3398 88.5208C35.3398 89.7555 34.3441 90.7611 33.0995 90.7611Z" fill="#0872B9"/>
</svg>
