<svg width="81" height="82" viewBox="0 0 81 82" fill="none" xmlns="http://www.w3.org/2000/svg">
<path d="M40.1942 80C62.3928 80 80.3884 62.0914 80.3884 40C80.3884 17.9086 62.3928 0 40.1942 0C17.9955 0 0 17.9086 0 40C0 62.0914 17.9955 80 40.1942 80Z" fill="#EBF4F9"/>
<path fill-rule="evenodd" clip-rule="evenodd" d="M35.0631 78.2881C54.428 78.2881 70.1262 79.1191 70.1262 80.1442C70.1262 81.1692 54.428 82.0002 35.0631 82.0002C15.6983 82.0002 0 81.1692 0 80.1442C0 79.1191 15.6983 78.2881 35.0631 78.2881Z" fill="#0059A3" fill-opacity="0.15"/>
<path fill-rule="evenodd" clip-rule="evenodd" d="M56.3072 56.5984C55.8602 53.9121 55.1042 51.6687 54.3763 49.9445C54.3624 49.9114 54.3477 49.8793 54.3319 49.8471C52.7608 46.6421 50.5695 42.8451 47.5193 38.8865C44.1608 34.5278 40.6975 31.1883 37.7295 28.7118C37.3102 28.3619 37.0685 27.8454 37.0685 27.301V26.0967C37.0685 25.758 37.1623 25.4259 37.3397 25.1368C39.1094 22.2521 40.8791 19.3675 42.6487 16.4828C43.4789 15.1296 42.3177 13.4343 40.7479 13.708C39.4073 13.9417 38.0666 14.1755 36.726 14.4092C36.1258 14.5138 35.5123 14.3182 35.0852 13.8858L31.7908 10.551C31.0649 9.81632 29.8746 9.81632 29.1487 10.551L25.8543 13.8858C25.4272 14.3182 24.8137 14.5138 24.2135 14.4092C22.8729 14.1755 21.5322 13.9417 20.1916 13.708C18.6218 13.4343 17.4606 15.1296 18.2908 16.4828C20.0604 19.3675 21.8301 22.2521 23.5998 25.1368C23.7772 25.4259 23.871 25.758 23.871 26.0967V27.301C23.871 27.8454 23.6294 28.3619 23.2101 28.7118C20.242 31.1883 16.7787 34.5278 13.4203 38.8865C10.37 42.8451 8.17874 46.6421 6.60763 49.8471C6.59185 49.8793 6.57716 49.9114 6.56323 49.9445C5.83533 51.6687 5.07934 53.9121 4.63231 56.5984C4.0218 60.2672 4.21215 63.4127 4.5316 65.6513C4.53677 65.6877 4.54288 65.7231 4.55027 65.7591C4.94599 67.695 6.0847 71.8629 9.6511 75.6447C10.8721 76.9394 12.1385 77.9353 13.3112 78.6985C15.0254 79.8139 17.0297 80.4063 19.078 80.4063H30.4698H41.8615C43.9098 80.4063 45.9142 79.8139 47.6283 78.6985C48.801 77.9353 50.0675 76.9394 51.2884 75.6447C54.8548 71.8629 55.9935 67.695 56.3893 65.7591C56.3966 65.7231 56.4028 65.6877 56.4079 65.6513C56.7274 63.4127 56.9177 60.2672 56.3072 56.5984Z" fill="#5398C3"/>
<path fill-rule="evenodd" clip-rule="evenodd" d="M20.7734 13.8102C22.6395 18.211 24.5056 22.6118 26.3716 27.0126C22.461 33.5174 20.6667 36.8764 20.9882 37.0905C21.3317 37.3191 24.0891 33.9595 29.2599 27.0126C28.5187 22.2381 27.7775 17.4637 27.0363 12.6892C26.7762 12.9604 26.5434 13.1959 26.3478 13.3904C25.6685 14.0662 25.4343 14.2528 25.0931 14.3536C24.8541 14.4241 24.6234 14.4347 24.5955 14.4357C24.4188 14.4429 24.285 14.4249 23.8829 14.3555C23.6113 14.3086 23.4755 14.2851 23.2653 14.2447C23.1401 14.2207 22.8449 14.168 22.2545 14.0627C21.9025 13.9999 21.4023 13.9128 20.7734 13.8102Z" fill="#286B9E"/>
<path fill-rule="evenodd" clip-rule="evenodd" d="M40.3145 13.8105C38.4484 18.2113 36.5823 22.612 34.7163 27.0128C38.6269 33.5177 40.4212 36.8766 40.0997 37.0907C39.7562 37.3193 36.9988 33.9597 31.828 27.0128C32.5692 22.2384 33.3104 17.4639 34.0516 12.6895C34.3117 12.9607 34.5445 13.1961 34.7401 13.3907C35.4194 14.0665 35.6536 14.253 35.9948 14.3538C36.2338 14.4244 36.4645 14.4349 36.4924 14.436C36.6691 14.4431 36.8029 14.4252 37.205 14.3557C37.4766 14.3088 37.6124 14.2854 37.8226 14.245C37.9478 14.2209 38.243 14.1683 38.8333 14.0629C39.1854 14.0001 39.6856 13.913 40.3145 13.8105Z" fill="#286B9E"/>
<path d="M34.1436 50.0183H31.888C32.2202 50.6273 32.4388 51.3494 32.5437 52.1846H34.7862L34.1305 54.7817H32.5306C32.3732 56.0345 31.9623 57.0524 31.2979 57.8354C30.6335 58.6185 29.6281 59.1666 28.2818 59.4798L32.9633 66.2268V66.4095H28.7145L23.4428 59.023L23.4297 56.7131H26.3803C27.5867 56.7131 28.3473 56.0693 28.6621 54.7817H23.3903L24.046 52.1846H28.6227C28.3517 51.1667 27.7004 50.6403 26.6688 50.6055H23.3379L24.0723 47.4082H34.7993L34.1436 50.0183Z" fill="white"/>
<path d="M34.1436 50.0183H31.888C32.2202 50.6273 32.4388 51.3494 32.5437 52.1846H34.7862L34.1305 54.7817H32.5306C32.3732 56.0345 31.9623 57.0524 31.2979 57.8354C30.6335 58.6185 29.6281 59.1666 28.2818 59.4798L32.9633 66.2268V66.4095H28.7145L23.4428 59.023L23.4297 56.7131H26.3803C27.5867 56.7131 28.3473 56.0693 28.6621 54.7817H23.3903L24.046 52.1846H28.6227C28.3517 51.1667 27.7004 50.6403 26.6688 50.6055H23.3379L24.0723 47.4082H34.7993L34.1436 50.0183Z" fill="url(#paint0_linear)"/>
<path fill-rule="evenodd" clip-rule="evenodd" d="M37.0532 28.2598H23.8856C23.1926 28.2598 22.6309 27.701 22.6309 27.0116C22.6309 26.3223 23.1926 25.7634 23.8856 25.7634H37.0532C37.7462 25.7634 38.3079 26.3223 38.3079 27.0116C38.3079 27.701 37.7462 28.2598 37.0532 28.2598Z" fill="#FFAB00"/>
<path fill-rule="evenodd" clip-rule="evenodd" d="M41.1465 80.4038H58.5704V76.4119H41.1465V80.4038Z" fill="#FFC502"/>
<path fill-rule="evenodd" clip-rule="evenodd" d="M41.7324 80.1277H42.2567V76.6873H41.7324V80.1277Z" fill="#FFAB00"/>
<path fill-rule="evenodd" clip-rule="evenodd" d="M42.7793 80.1277H43.3036V76.6873H42.7793V80.1277Z" fill="#FFAB00"/>
<path fill-rule="evenodd" clip-rule="evenodd" d="M43.8281 80.1277H44.3524V76.6873H43.8281V80.1277Z" fill="#FFAB00"/>
<path fill-rule="evenodd" clip-rule="evenodd" d="M44.877 80.1277H45.4013V76.6873H44.877V80.1277Z" fill="#FFAB00"/>
<path fill-rule="evenodd" clip-rule="evenodd" d="M45.9258 80.1277H46.4501V76.6873H45.9258V80.1277Z" fill="#FFAB00"/>
<path fill-rule="evenodd" clip-rule="evenodd" d="M46.9746 80.1277H47.4989V76.6873H46.9746V80.1277Z" fill="#FFAB00"/>
<path fill-rule="evenodd" clip-rule="evenodd" d="M48.0234 80.1277H48.5478V76.6873H48.0234V80.1277Z" fill="#FFAB00"/>
<path fill-rule="evenodd" clip-rule="evenodd" d="M49.0723 80.1277H49.5966V76.6873H49.0723V80.1277Z" fill="#FFAB00"/>
<path fill-rule="evenodd" clip-rule="evenodd" d="M50.1211 80.1277H50.6454V76.6873H50.1211V80.1277Z" fill="#FFAB00"/>
<path fill-rule="evenodd" clip-rule="evenodd" d="M51.1699 80.1277H51.6942V76.6873H51.1699V80.1277Z" fill="#FFAB00"/>
<path fill-rule="evenodd" clip-rule="evenodd" d="M52.2188 80.1277H52.7431V76.6873H52.2188V80.1277Z" fill="#FFAB00"/>
<path fill-rule="evenodd" clip-rule="evenodd" d="M53.2656 80.1277H53.7899V76.6873H53.2656V80.1277Z" fill="#FFAB00"/>
<path fill-rule="evenodd" clip-rule="evenodd" d="M54.3145 80.1277H54.8388V76.6873H54.3145V80.1277Z" fill="#FFAB00"/>
<path fill-rule="evenodd" clip-rule="evenodd" d="M55.3633 80.1277H55.8876V76.6873H55.3633V80.1277Z" fill="#FFAB00"/>
<path fill-rule="evenodd" clip-rule="evenodd" d="M56.4121 80.1277H56.9364V76.6873H56.4121V80.1277Z" fill="#FFAB00"/>
<path fill-rule="evenodd" clip-rule="evenodd" d="M57.4609 80.1277H57.9853V76.6873H57.4609V80.1277Z" fill="#FFAB00"/>
<path fill-rule="evenodd" clip-rule="evenodd" d="M41.1445 76.692H58.5685V76.4119H41.1445V76.692Z" fill="#FFC502"/>
<path fill-rule="evenodd" clip-rule="evenodd" d="M58.5685 80.123V80.4032H41.1445V80.123" fill="#EA9E03"/>
<path fill-rule="evenodd" clip-rule="evenodd" d="M43.1465 76.4119H60.5705V72.4199H43.1465V76.4119Z" fill="#FFC502"/>
<path fill-rule="evenodd" clip-rule="evenodd" d="M43.7324 76.1358H44.2567V72.6953H43.7324V76.1358Z" fill="#FFAB00"/>
<path fill-rule="evenodd" clip-rule="evenodd" d="M44.7812 76.1358H45.3056V72.6953H44.7812V76.1358Z" fill="#FFAB00"/>
<path fill-rule="evenodd" clip-rule="evenodd" d="M45.8281 76.1358H46.3524V72.6953H45.8281V76.1358Z" fill="#FFAB00"/>
<path fill-rule="evenodd" clip-rule="evenodd" d="M46.8789 76.1358H47.4032V72.6953H46.8789V76.1358Z" fill="#FFAB00"/>
<path fill-rule="evenodd" clip-rule="evenodd" d="M47.9277 76.1358H48.4521V72.6953H47.9277V76.1358Z" fill="#FFAB00"/>
<path fill-rule="evenodd" clip-rule="evenodd" d="M48.9746 76.1358H49.4989V72.6953H48.9746V76.1358Z" fill="#FFAB00"/>
<path fill-rule="evenodd" clip-rule="evenodd" d="M50.0234 76.1358H50.5478V72.6953H50.0234V76.1358Z" fill="#FFAB00"/>
<path fill-rule="evenodd" clip-rule="evenodd" d="M51.0723 76.1358H51.5966V72.6953H51.0723V76.1358Z" fill="#FFAB00"/>
<path fill-rule="evenodd" clip-rule="evenodd" d="M52.1211 76.1358H52.6454V72.6953H52.1211V76.1358Z" fill="#FFAB00"/>
<path fill-rule="evenodd" clip-rule="evenodd" d="M53.1699 76.1358H53.6942V72.6953H53.1699V76.1358Z" fill="#FFAB00"/>
<path fill-rule="evenodd" clip-rule="evenodd" d="M54.2188 76.1358H54.7431V72.6953H54.2188V76.1358Z" fill="#FFAB00"/>
<path fill-rule="evenodd" clip-rule="evenodd" d="M55.2676 76.1358H55.7919V72.6953H55.2676V76.1358Z" fill="#FFAB00"/>
<path fill-rule="evenodd" clip-rule="evenodd" d="M56.3145 76.1358H56.8388V72.6953H56.3145V76.1358Z" fill="#FFAB00"/>
<path fill-rule="evenodd" clip-rule="evenodd" d="M57.3633 76.1358H57.8876V72.6953H57.3633V76.1358Z" fill="#FFAB00"/>
<path fill-rule="evenodd" clip-rule="evenodd" d="M58.4141 76.1358H58.9384V72.6953H58.4141V76.1358Z" fill="#FFAB00"/>
<path fill-rule="evenodd" clip-rule="evenodd" d="M59.4609 76.1358H59.9852V72.6953H59.4609V76.1358Z" fill="#FFAB00"/>
<path fill-rule="evenodd" clip-rule="evenodd" d="M43.1445 72.7H60.5685V72.4199H43.1445V72.7Z" fill="#FFC502"/>
<path fill-rule="evenodd" clip-rule="evenodd" d="M60.5685 76.1311V76.4112H43.1445V76.1311" fill="#EA9E03"/>
<path fill-rule="evenodd" clip-rule="evenodd" d="M42.1016 72.42H59.5255V68.428H42.1016V72.42Z" fill="#FFC502"/>
<path fill-rule="evenodd" clip-rule="evenodd" d="M42.6875 72.1438H43.2118V68.7034H42.6875V72.1438Z" fill="#FFAB00"/>
<path fill-rule="evenodd" clip-rule="evenodd" d="M43.7363 72.1438H44.2607V68.7034H43.7363V72.1438Z" fill="#FFAB00"/>
<path fill-rule="evenodd" clip-rule="evenodd" d="M44.7832 72.1438H45.3075V68.7034H44.7832V72.1438Z" fill="#FFAB00"/>
<path fill-rule="evenodd" clip-rule="evenodd" d="M45.832 72.1438H46.3564V68.7034H45.832V72.1438Z" fill="#FFAB00"/>
<path fill-rule="evenodd" clip-rule="evenodd" d="M46.8828 72.1438H47.4071V68.7034H46.8828V72.1438Z" fill="#FFAB00"/>
<path fill-rule="evenodd" clip-rule="evenodd" d="M47.9297 72.1438H48.454V68.7034H47.9297V72.1438Z" fill="#FFAB00"/>
<path fill-rule="evenodd" clip-rule="evenodd" d="M48.9785 72.1438H49.5028V68.7034H48.9785V72.1438Z" fill="#FFAB00"/>
<path fill-rule="evenodd" clip-rule="evenodd" d="M50.0273 72.1438H50.5517V68.7034H50.0273V72.1438Z" fill="#FFAB00"/>
<path fill-rule="evenodd" clip-rule="evenodd" d="M51.0762 72.1438H51.6005V68.7034H51.0762V72.1438Z" fill="#FFAB00"/>
<path fill-rule="evenodd" clip-rule="evenodd" d="M52.123 72.1438H52.6474V68.7034H52.123V72.1438Z" fill="#FFAB00"/>
<path fill-rule="evenodd" clip-rule="evenodd" d="M53.1738 72.1438H53.6982V68.7034H53.1738V72.1438Z" fill="#FFAB00"/>
<path fill-rule="evenodd" clip-rule="evenodd" d="M54.2227 72.1438H54.747V68.7034H54.2227V72.1438Z" fill="#FFAB00"/>
<path fill-rule="evenodd" clip-rule="evenodd" d="M55.2695 72.1438H55.7939V68.7034H55.2695V72.1438Z" fill="#FFAB00"/>
<path fill-rule="evenodd" clip-rule="evenodd" d="M56.3184 72.1438H56.8427V68.7034H56.3184V72.1438Z" fill="#FFAB00"/>
<path fill-rule="evenodd" clip-rule="evenodd" d="M57.3672 72.1438H57.8915V68.7034H57.3672V72.1438Z" fill="#FFAB00"/>
<path fill-rule="evenodd" clip-rule="evenodd" d="M58.416 72.1438H58.9403V68.7034H58.416V72.1438Z" fill="#FFAB00"/>
<path fill-rule="evenodd" clip-rule="evenodd" d="M42.0996 68.7081H59.5236V68.428H42.0996V68.7081Z" fill="#FFC502"/>
<path fill-rule="evenodd" clip-rule="evenodd" d="M59.5236 72.1392V72.4193H42.0996V72.1392" fill="#EA9E03"/>
<path fill-rule="evenodd" clip-rule="evenodd" d="M68.9015 78.6971L65.2751 80.4064L57.8145 64.7423L61.4408 63.033L68.9015 78.6971Z" fill="#FFC502"/>
<path fill-rule="evenodd" clip-rule="evenodd" d="M58.539 65.6212L58.3145 65.1499L61.4398 63.6768L61.6643 64.1481L58.539 65.6212Z" fill="#FFAB00"/>
<path fill-rule="evenodd" clip-rule="evenodd" d="M58.9882 66.5646L58.7637 66.0932L61.889 64.6201L62.1135 65.0915L58.9882 66.5646Z" fill="#FFAB00"/>
<path fill-rule="evenodd" clip-rule="evenodd" d="M59.4374 67.507L59.2129 67.0356L62.3383 65.5625L62.5627 66.0339L59.4374 67.507Z" fill="#FFAB00"/>
<path fill-rule="evenodd" clip-rule="evenodd" d="M59.8866 68.4496L59.6621 67.9783L62.7874 66.5051L63.012 66.9765L59.8866 68.4496Z" fill="#FFAB00"/>
<path fill-rule="evenodd" clip-rule="evenodd" d="M60.3359 69.3927L60.1113 68.9214L63.2367 67.4482L63.4612 67.9196L60.3359 69.3927Z" fill="#FFAB00"/>
<path fill-rule="evenodd" clip-rule="evenodd" d="M60.7851 70.3346L60.5605 69.8633L63.6859 68.3901L63.9104 68.8615L60.7851 70.3346Z" fill="#FFAB00"/>
<path fill-rule="evenodd" clip-rule="evenodd" d="M61.2343 71.278L61.0098 70.8066L64.1351 69.3335L64.3596 69.8049L61.2343 71.278Z" fill="#FFAB00"/>
<path fill-rule="evenodd" clip-rule="evenodd" d="M61.6835 72.2196L61.459 71.7483L64.5844 70.2751L64.8088 70.7465L61.6835 72.2196Z" fill="#FFAB00"/>
<path fill-rule="evenodd" clip-rule="evenodd" d="M62.1327 73.163L61.9082 72.6917L65.0335 71.2185L65.258 71.6899L62.1327 73.163Z" fill="#FFAB00"/>
<path fill-rule="evenodd" clip-rule="evenodd" d="M62.58 74.1054L62.3555 73.634L65.4808 72.1609L65.7053 72.6322L62.58 74.1054Z" fill="#FFAB00"/>
<path fill-rule="evenodd" clip-rule="evenodd" d="M63.0292 75.048L62.8047 74.5766L65.93 73.1035L66.1545 73.5748L63.0292 75.048Z" fill="#FFAB00"/>
<path fill-rule="evenodd" clip-rule="evenodd" d="M63.4804 75.9914L63.2559 75.52L66.3812 74.0469L66.6057 74.5182L63.4804 75.9914Z" fill="#FFAB00"/>
<path fill-rule="evenodd" clip-rule="evenodd" d="M63.9277 76.9337L63.7031 76.4624L66.8285 74.9893L67.053 75.4606L63.9277 76.9337Z" fill="#FFAB00"/>
<path fill-rule="evenodd" clip-rule="evenodd" d="M64.3769 77.8764L64.1523 77.405L67.2777 75.9319L67.5022 76.4032L64.3769 77.8764Z" fill="#FFAB00"/>
<path fill-rule="evenodd" clip-rule="evenodd" d="M64.8261 78.8187L64.6016 78.3474L67.7269 76.8743L67.9514 77.3456L64.8261 78.8187Z" fill="#FFAB00"/>
<path fill-rule="evenodd" clip-rule="evenodd" d="M65.2753 79.7621L65.0508 79.2907L68.1761 77.8176L68.4006 78.2889L65.2753 79.7621Z" fill="#FFAB00"/>
<path fill-rule="evenodd" clip-rule="evenodd" d="M68.9006 78.6949L68.6462 78.8148L61.1855 63.1507L61.44 63.0308L68.9006 78.6949Z" fill="#FFC502"/>
<path fill-rule="evenodd" clip-rule="evenodd" d="M65.5296 80.2842L65.2751 80.4042L57.8145 64.74L58.0689 64.6201" fill="#EA9E03"/>
<defs>
<linearGradient id="paint0_linear" x1="29.0686" y1="47.4082" x2="29.0686" y2="66.4095" gradientUnits="userSpaceOnUse">
<stop stop-color="white"/>
<stop offset="1" stop-color="white" stop-opacity="0"/>
</linearGradient>
</defs>
</svg>
