<svg width="24" height="24" viewBox="0 0 24 24" fill="none" xmlns="http://www.w3.org/2000/svg">
<path fill-rule="evenodd" clip-rule="evenodd" d="M17.8914 17.8819C18.4466 17.3464 19.3373 17.3558 19.8808 17.9028L23.599 21.6448C24.1425 22.1918 24.133 23.0693 23.5778 23.6048C23.0226 24.1403 22.1319 24.1309 21.5884 23.5839L17.8703 19.8419C17.3268 19.2949 17.3362 18.4174 17.8914 17.8819Z" fill="white"/>
<path fill-rule="evenodd" clip-rule="evenodd" d="M10.8905 2.77203C6.4612 2.77203 2.81357 6.40448 2.81357 10.9554C2.81357 15.5064 6.4612 19.1388 10.8905 19.1388C15.3198 19.1388 18.9674 15.5064 18.9674 10.9554C18.9674 6.40448 15.3198 2.77203 10.8905 2.77203ZM0 10.9554C0 4.93628 4.84438 0 10.8905 0C16.9366 0 21.781 4.93628 21.781 10.9554C21.781 16.9746 16.9366 21.9108 10.8905 21.9108C4.84438 21.9108 0 16.9746 0 10.9554Z" fill="white"/>
</svg>
